# xmcd CD database file
#
# Track frame offsets:
#	150
#	16005
#	33974
#	52491
#	66573
#	86160
#	98078
#	117263
#	132428
#
# Disc length: 1988 seconds
#
# Revision: 1
# Processed by: cddbd v1.5PL3 Copyright (c) Steve Scherf et al.
# Submitted via: CDex 1.51
#
DISCID=7d07c209
DTITLE=Catfish Walker - Up From The Bottom
DYEAR=2003
DGENRE=Blues
TTITLE0=Country Livin'
TTITLE1=Low Road
TTITLE2=Workin' Man Blues
TTITLE3=Don't You Know
TTITLE4=I Can't Help It
TTITLE5=Fine Line
TTITLE6=Night On The Town
TTITLE7=Highway Blues
TTITLE8=Old Man River
EXTD=YEAR: 2003
EXTT0=
EXTT1=
EXTT2=
EXTT3=
EXTT4=
EXTT5=
EXTT6=
EXTT7=
EXTT8=
PLAYORDER=
